<svg width="30" height="30" viewBox="0 0 30 30" fill="none" xmlns="http://www.w3.org/2000/svg">
<path fill-rule="evenodd" clip-rule="evenodd" d="M13.1079 5.14285C13.9509 3.69001 16.049 3.69002 16.892 5.14285L19.4737 9.59205C19.7116 10.0022 20.123 10.282 20.5918 10.3528L24.8788 11.0003C26.7476 11.2826 27.4031 13.6421 25.9477 14.8478L22.8241 17.4357C22.3857 17.7989 22.1795 18.3719 22.286 18.9312L23.161 23.5261C23.5038 25.3261 21.6142 26.7246 19.993 25.8709L15.7279 23.6252C15.2723 23.3853 14.7276 23.3853 14.272 23.6252L10.0069 25.8709C8.38566 26.7246 6.49613 25.3261 6.83887 23.5261L7.71385 18.9312C7.82035 18.3719 7.6142 17.7989 7.17578 17.4357L4.05215 14.8478C2.59679 13.642 3.2523 11.2826 5.12104 11.0003L9.4081 10.3528C9.87693 10.282 10.2882 10.0022 10.5262 9.59205L13.1079 5.14285ZM15.2702 6.08388C15.1498 5.87634 14.8501 5.87634 14.7297 6.08388L12.148 10.5331C11.6244 11.4353 10.7195 12.051 9.68812 12.2068L5.40106 12.8543C5.1341 12.8946 5.04046 13.2317 5.24836 13.4039L8.37199 15.9918C9.33653 16.791 9.79006 18.0515 9.55575 19.2819L8.68078 23.8769C8.63181 24.134 8.90174 24.3338 9.13336 24.2118L13.3984 21.9661C14.4009 21.4383 15.599 21.4383 16.6015 21.9661L20.8665 24.2118C21.0981 24.3338 21.3681 24.134 21.3191 23.8769L20.4441 19.2819C20.2098 18.0515 20.6634 16.791 21.6279 15.9918L24.7515 13.4039C24.9594 13.2317 24.8658 12.8946 24.5988 12.8543L20.3118 12.2068C19.2803 12.051 18.3755 11.4353 17.8519 10.5331L15.2702 6.08388Z" fill="#2546F3"/>
</svg>
