<svg width="22" height="20" viewBox="0 0 35 32" fill="none" xmlns="http://www.w3.org/2000/svg">
<path d="M18.794 0.83019C18.1517 -0.276728 16.5531 -0.276732 15.9108 0.83019L11.3874 8.6257C11.0701 9.17251 10.5217 9.54566 9.89661 9.64008L1.41942 10.9205C-0.004387 11.1355 -0.50382 12.9332 0.605023 13.8518L6.92017 19.0839C7.50475 19.5682 7.77961 20.3321 7.63761 21.0779L5.98566 29.7531C5.72452 31.1245 7.16417 32.19 8.39942 31.5396L16.3818 27.3366C16.9893 27.0167 17.7155 27.0167 18.323 27.3366L26.3054 31.5396C27.5406 32.19 28.9803 31.1245 28.7191 29.7531L27.0672 21.0779C26.9252 20.3321 27.2 19.5682 27.7846 19.0839L34.0998 13.8518C35.2086 12.9332 34.7092 11.1355 33.2854 10.9205L24.8082 9.64008C24.1831 9.54566 23.6347 9.17251 23.3174 8.6257L18.794 0.83019Z" fill="#2546F3"/>
</svg>
