<svg xmlns="http://www.w3.org/2000/svg" width="30" height="28" viewBox="0 0 32 30" fill="none">
<path fill-rule="evenodd" clip-rule="evenodd" d="M13.4773 1.85698C14.6013 -0.0801359 17.3987 -0.0801305 18.5227 1.85698L21.965 7.78925C22.2823 8.33605 22.8307 8.7092 23.4558 8.80362L29.1719 9.66696C31.6635 10.0433 32.5375 13.1892 30.597 14.7969L26.4322 18.2474C25.8476 18.7317 25.5728 19.4957 25.7148 20.2414L26.8814 26.368C27.3384 28.768 24.819 30.6326 22.6574 29.4944L16.9706 26.5001C16.3631 26.1802 15.6369 26.1802 15.0294 26.5001L9.34264 29.4944C7.18095 30.6326 4.66157 28.768 5.11857 26.368L6.28521 20.2414C6.42721 19.4957 6.15234 18.7317 5.56777 18.2474L1.40294 14.7969C-0.537537 13.1892 0.336468 10.0433 2.82813 9.66696L8.5442 8.80362C9.16931 8.7092 9.71772 8.33605 10.035 7.78925L13.4773 1.85698ZM16.3604 3.11169C16.1998 2.83496 15.8002 2.83496 15.6396 3.11169L12.1973 9.04396C11.4993 10.2469 10.2928 11.0679 8.91756 11.2756L3.20149 12.1389C2.84553 12.1927 2.72068 12.6421 2.99789 12.8718L7.16272 16.3223C8.44878 17.3878 9.05348 19.0685 8.74108 20.7091L7.57444 26.8357C7.50916 27.1785 7.86906 27.4449 8.17788 27.2823L13.8646 24.288C15.2012 23.5842 16.7988 23.5842 18.1354 24.288L23.8221 27.2823C24.1309 27.4449 24.4908 27.1785 24.4255 26.8357L23.2589 20.7091C22.9465 19.0685 23.5512 17.3878 24.8373 16.3223L29.0021 12.8718C29.2793 12.6421 29.1544 12.1927 28.7985 12.1389L23.0824 11.2756C21.7072 11.0679 20.5007 10.2469 19.8026 9.04396L16.3604 3.11169Z" fill="#2546F3"/>
</svg>