<svg xmlns="http://www.w3.org/2000/svg" width="26" height="27" viewBox="0 0 28 29" fill="none">
<path d="M12.545 0.88498C12.9516 0.54065 13.4672 0.351685 14 0.351685C14.5328 0.351685 15.0484 0.54065 15.455 0.88498L26.705 10.4295C26.9541 10.6407 27.1543 10.9036 27.2915 11.1999C27.4288 11.4962 27.5 11.8189 27.5 12.1455V26.25C27.5 26.8467 27.2629 27.419 26.841 27.841C26.419 28.2629 25.8467 28.5 25.25 28.5H16.625C16.3266 28.5 16.0405 28.3815 15.8295 28.1705C15.6185 27.9595 15.5 27.6733 15.5 27.375V18H12.5V27.375C12.5 27.6733 12.3815 27.9595 12.1705 28.1705C11.9595 28.3815 11.6734 28.5 11.375 28.5H2.75C2.15326 28.5 1.58097 28.2629 1.15901 27.841C0.737053 27.419 0.5 26.8467 0.5 26.25V12.1455C0.5 11.4855 0.791 10.857 1.295 10.4295L12.545 0.88498ZM14 2.60098L2.75 12.1455V26.25H10.25V16.875C10.25 16.5766 10.3685 16.2905 10.5795 16.0795C10.7905 15.8685 11.0766 15.75 11.375 15.75H16.625C16.9234 15.75 17.2095 15.8685 17.4205 16.0795C17.6315 16.2905 17.75 16.5766 17.75 16.875V26.25H25.25V12.1455L14 2.60098Z" fill="#2546F3"/>
</svg>