<svg xmlns="http://www.w3.org/2000/svg" width="400" height="64" viewBox="0 0 412 94" fill="none">
<path opacity="0.5" d="M378.771 46.7346H0V72.4751H378.771V46.7346Z" fill="#747CA6"/>
<path d="M408.475 81.1129L408.09 80.728L398.588 90.1913L398.817 90.4188L401.329 92.9203C402.945 94.5297 406.388 93.7248 409.004 91.101C411.623 88.4772 412.447 85.0663 410.83 83.457L408.475 81.1129Z" fill="#0923A9"/>
<path d="M407.441 79.9585L397.746 89.6318L400.116 91.9582L409.814 82.2849L409.549 82.0052L409.532 82.0226L407.441 79.9585Z" fill="#2546F3"/>
<path d="M355.818 0C334.934 0 318 16.8628 318 37.6614C318 58.4603 334.934 75.3228 355.818 75.3228C363.564 75.3228 370.747 72.9964 376.755 69.0255L397.746 89.6318L407.459 79.9759L386.593 59.5096C391.017 53.3523 393.636 45.8132 393.636 37.6614C393.636 16.8628 376.702 0 355.818 0ZM356.346 60.3144C343.786 60.3144 333.614 50.1863 333.614 37.6788C333.614 25.1717 343.804 15.0435 356.346 15.0435C368.902 15.0435 379.075 25.1717 379.075 37.6788C379.075 50.1685 368.884 60.3144 356.346 60.3144Z" fill="#0923A9"/>
<path d="M360.909 21.2884L342.327 44.5533C341.713 45.323 341.834 46.4601 342.627 47.0723C342.958 47.3345 343.347 47.4571 343.751 47.4571C344.279 47.4571 344.803 47.2297 345.156 46.7749L363.721 23.5099C364.335 22.7403 364.213 21.6206 363.421 20.991C362.651 20.3787 361.527 20.501 360.909 21.2884Z" fill="#2546F3"/>
<path d="M368.691 29.038L350.127 52.3029C349.513 53.0726 349.634 54.1923 350.426 54.8219C350.758 55.0845 351.144 55.2067 351.55 55.2067C352.075 55.2067 352.603 54.9793 352.953 54.5245L371.539 31.2596C372.152 30.4899 372.031 29.3702 371.239 28.7406C370.45 28.1283 369.309 28.2683 368.691 29.038Z" fill="#2546F3"/>
<path d="M14.5509 32.625H46.8118V44.6373H14.5509V32.625ZM15.6996 60.0816H52.1727V72.4752H0.287109V5.74048H50.9282V18.1341H15.6996V60.0816ZM84.8159 73.2378C80.54 73.2378 76.7108 72.4116 73.3283 70.7591C70.0097 69.1067 67.425 66.5962 65.5742 63.2276C63.7234 59.7956 62.798 55.4419 62.798 50.1667V21.1848H77.7319V47.974C77.7319 52.2323 78.6254 55.3784 80.4123 57.4122C82.2631 59.3825 84.8478 60.3676 88.1664 60.3676C90.464 60.3676 92.5062 59.8909 94.2932 58.9376C96.0801 57.9206 97.4841 56.3953 98.5053 54.3615C99.5264 52.2641 100.037 49.6583 100.037 46.544V21.1848H114.971V72.4752H100.803V58.3655L103.387 62.465C101.664 66.0241 99.1116 68.7253 95.7291 70.5685C92.4105 72.3481 88.7727 73.2378 84.8159 73.2378ZM129.859 72.4752V5.74048H158.865C164.864 5.74048 170.034 6.72561 174.373 8.69587C178.713 10.6026 182.064 13.3673 184.425 16.99C186.786 20.6128 187.967 24.9346 187.967 29.9556C187.967 34.9131 186.786 39.2032 184.425 42.8259C182.064 46.3851 178.713 49.118 174.373 51.0247C170.034 52.9314 164.864 53.8848 158.865 53.8848H138.475L145.367 47.116V72.4752H129.859ZM172.459 72.4752L155.706 48.26H172.267L189.212 72.4752H172.459ZM145.367 48.832L138.475 41.5865H158.004C162.79 41.5865 166.364 40.5696 168.725 38.5358C171.087 36.4384 172.267 33.5784 172.267 29.9556C172.267 26.2693 171.087 23.4093 168.725 21.3755C166.364 19.3416 162.79 18.3247 158.004 18.3247H138.475L145.367 10.9839V48.832ZM224.761 73.2378C218.889 73.2378 213.72 72.0938 209.253 69.8058C204.849 67.5177 201.435 64.4034 199.009 60.4629C196.584 56.4588 195.372 51.9145 195.372 46.83C195.372 41.6819 196.552 37.1376 198.914 33.197C201.339 29.193 204.626 26.0787 208.774 23.8542C212.922 21.5661 217.613 20.4221 222.846 20.4221C227.888 20.4221 232.419 21.5026 236.44 23.6635C240.524 25.7609 243.747 28.8116 246.109 32.8157C248.47 36.7562 249.651 41.4912 249.651 47.0206C249.651 47.5927 249.619 48.26 249.555 49.0227C249.491 49.7218 249.427 50.3892 249.363 51.0247H207.529V42.3492H241.513L235.77 44.9233C235.77 42.2539 235.227 39.9341 234.142 37.9638C233.057 35.9935 231.558 34.4682 229.643 33.3877C227.728 32.2437 225.495 31.6717 222.942 31.6717C220.389 31.6717 218.123 32.2437 216.145 33.3877C214.23 34.4682 212.731 36.0253 211.646 38.0591C210.561 40.0294 210.018 42.381 210.018 45.1139V47.402C210.018 50.1985 210.625 52.6772 211.837 54.8381C213.114 56.9355 214.869 58.5562 217.102 59.7002C219.4 60.7807 222.08 61.3209 225.144 61.3209C227.888 61.3209 230.281 60.9078 232.323 60.0816C234.429 59.2553 236.344 58.016 238.067 56.3635L246.013 64.9437C243.651 67.6131 240.684 69.6787 237.11 71.1405C233.536 72.5387 229.42 73.2378 224.761 73.2378ZM274.527 57.2215L273.665 39.3938L305.735 5.74048H322.967L294.056 36.7244L285.44 45.8766L274.527 57.2215ZM260.646 72.4752V5.74048H276.059V72.4752H260.646ZM306.501 72.4752L282.664 43.3979L292.811 32.4344L324.594 72.4752H306.501Z" fill="#0923A9"/>
</svg>