<svg xmlns="http://www.w3.org/2000/svg" width="400" height="64" viewBox="0 0 1288 343" fill="none">
<path opacity="0.5" d="M1211 210H24V291H1211V210Z" fill="#3753A0"/>
<path d="M1279.08 306.794L1278 305.711L1251.37 332.343L1252.01 332.983L1259.05 340.023C1263.58 344.552 1273.23 342.287 1280.56 334.903C1287.9 327.519 1290.21 317.92 1285.68 313.391L1279.08 306.794Z" fill="#22398E"/>
<path d="M1276.18 303.545L1249.01 330.768L1255.65 337.315L1282.83 310.092L1282.09 309.305L1282.04 309.354L1276.18 303.545Z" fill="#D9D9D9"/>
<path d="M1131.5 78.523C1072.97 78.523 1025.51 125.979 1025.51 184.511C1025.51 243.044 1072.97 290.499 1131.5 290.499C1153.21 290.499 1173.34 283.952 1190.18 272.777L1249.01 330.768L1276.23 303.594L1217.75 245.997C1230.15 228.669 1237.49 207.452 1237.49 184.511C1237.49 125.979 1190.03 78.523 1131.5 78.523ZM1132.98 248.262C1097.78 248.262 1069.27 219.759 1069.27 184.56C1069.27 149.362 1097.83 120.859 1132.98 120.859C1168.17 120.859 1196.68 149.362 1196.68 184.56C1196.68 219.709 1168.12 248.262 1132.98 248.262Z" fill="#22398E"/>
<path d="M1145.77 138.434L1093.69 203.907C1091.97 206.073 1092.31 209.273 1094.53 210.996C1095.46 211.734 1096.55 212.079 1097.68 212.079C1099.16 212.079 1100.63 211.439 1101.62 210.159L1153.65 144.686C1155.37 142.52 1155.03 139.369 1152.81 137.597C1150.65 135.874 1147.5 136.218 1145.77 138.434Z" fill="#D9D9D9"/>
<path d="M1167.58 160.242L1115.55 225.715C1113.83 227.881 1114.17 231.032 1116.39 232.804C1117.32 233.543 1118.4 233.887 1119.54 233.887C1121.01 233.887 1122.49 233.247 1123.47 231.967L1175.56 166.494C1177.28 164.328 1176.94 161.177 1174.72 159.405C1172.51 157.682 1169.31 158.076 1167.58 160.242Z" fill="#D9D9D9"/>
<path d="M69.6 165.6H170.7V203.4H69.6V165.6ZM73.2 252H187.5V291H24.9V81H183.6V120H73.2V252ZM289.798 293.4C276.398 293.4 264.398 290.8 253.798 285.6C243.398 280.4 235.298 272.5 229.498 261.9C223.698 251.1 220.798 237.4 220.798 220.8V129.6H267.598V213.9C267.598 227.3 270.398 237.2 275.998 243.6C281.798 249.8 289.898 252.9 300.298 252.9C307.498 252.9 313.898 251.4 319.498 248.4C325.098 245.2 329.498 240.4 332.698 234C335.898 227.4 337.498 219.2 337.498 209.4V129.6H384.298V291H339.898V246.6L347.998 259.5C342.598 270.7 334.598 279.2 323.998 285C313.598 290.6 302.198 293.4 289.798 293.4ZM430.955 291V81H521.855C540.655 81 556.855 84.1 570.455 90.3C584.055 96.3 594.555 105 601.955 116.4C609.355 127.8 613.055 141.4 613.055 157.2C613.055 172.8 609.355 186.3 601.955 197.7C594.555 208.9 584.055 217.5 570.455 223.5C556.855 229.5 540.655 232.5 521.855 232.5H457.955L479.555 211.2V291H430.955ZM564.455 291L511.955 214.8H563.855L616.955 291H564.455ZM479.555 216.6L457.955 193.8H519.155C534.155 193.8 545.355 190.6 552.755 184.2C560.155 177.6 563.855 168.6 563.855 157.2C563.855 145.6 560.155 136.6 552.755 130.2C545.355 123.8 534.155 120.6 519.155 120.6H457.955L479.555 97.5V216.6ZM728.36 293.4C709.96 293.4 693.76 289.8 679.76 282.6C665.96 275.4 655.26 265.6 647.66 253.2C640.06 240.6 636.26 226.3 636.26 210.3C636.26 194.1 639.96 179.8 647.36 167.4C654.96 154.8 665.26 145 678.26 138C691.26 130.8 705.96 127.2 722.36 127.2C738.16 127.2 752.36 130.6 764.96 137.4C777.76 144 787.86 153.6 795.26 166.2C802.66 178.6 806.36 193.5 806.36 210.9C806.36 212.7 806.26 214.8 806.06 217.2C805.86 219.4 805.66 221.5 805.46 223.5H674.36V196.2H780.86L762.86 204.3C762.86 195.9 761.16 188.6 757.76 182.4C754.36 176.2 749.66 171.4 743.66 168C737.66 164.4 730.66 162.6 722.66 162.6C714.66 162.6 707.56 164.4 701.36 168C695.36 171.4 690.66 176.3 687.26 182.7C683.86 188.9 682.16 196.3 682.16 204.9V212.1C682.16 220.9 684.06 228.7 687.86 235.5C691.86 242.1 697.36 247.2 704.36 250.8C711.56 254.2 719.96 255.9 729.56 255.9C738.16 255.9 745.66 254.6 752.06 252C758.66 249.4 764.66 245.5 770.06 240.3L794.96 267.3C787.56 275.7 778.26 282.2 767.06 286.8C755.86 291.2 742.96 293.4 728.36 293.4ZM884.318 243L881.618 186.9L982.118 81H1036.12L945.518 178.5L918.518 207.3L884.318 243ZM840.818 291V81H889.118V291H840.818ZM984.518 291L909.818 199.5L941.618 165L1041.22 291H984.518Z" fill="#22398E"/>
</svg>