<svg width="22" height="20" viewBox="0 0 26 24" fill="none" xmlns="http://www.w3.org/2000/svg">
<path d="M14 21.375C13.3787 21.375 12.875 21.8787 12.875 22.5C12.875 23.1213 13.3787 23.625 14 23.625H23C24.4497 23.625 25.625 22.4497 25.625 21V3C25.625 1.55025 24.4497 0.375 23 0.375H14C13.3787 0.375 12.875 0.878682 12.875 1.5C12.875 2.12132 13.3787 2.625 14 2.625L23 2.625C23.2071 2.625 23.375 2.79289 23.375 3L23.375 21C23.375 21.2071 23.2071 21.375 23 21.375H14Z" fill="#DD2025"/>
<path fill-rule="evenodd" clip-rule="evenodd" d="M17.7546 15.5478C18.7902 15.5478 19.6296 14.7084 19.6296 13.6728V10.3121C19.6296 9.27652 18.7901 8.43706 17.7546 8.43706H10.8357C10.8259 8.32691 10.8157 8.2168 10.805 8.10673L10.724 7.2729C10.6003 6.00074 9.2494 5.23887 8.09677 5.79126C5.64543 6.96605 3.42627 8.57367 1.54603 10.5368L1.39723 10.6922C0.700922 11.4192 0.700922 12.5657 1.39723 13.2927L1.54603 13.4481C3.42627 15.4112 5.64543 17.0188 8.09677 18.1936C9.2494 18.746 10.6003 17.9841 10.724 16.712L10.805 15.8781C10.8157 15.7681 10.8259 15.658 10.8357 15.5478H17.7546ZM9.79266 13.2978C9.39311 13.2978 9.03989 13.5068 8.84013 13.824C8.74284 13.9784 8.68195 14.1586 8.66984 14.3528C8.64263 14.7891 8.60786 15.2251 8.56555 15.6605L8.54202 15.9025C6.98795 15.1016 5.54475 14.1042 4.24757 12.9359C3.91103 12.6327 3.58433 12.3181 3.26807 11.9924C4.80337 10.4114 6.58477 9.09104 8.54202 8.08237L8.56555 8.32438C8.60786 8.7598 8.64263 9.19576 8.66984 9.63209C8.70683 10.2251 9.19853 10.6871 9.79266 10.6871H17.3796V13.2978H9.79266Z" fill="#DD2025"/>
</svg>
