<svg xmlns="http://www.w3.org/2000/svg" width="25" height="27" viewBox="0 0 26 29" fill="none">
<path fill-rule="evenodd" clip-rule="evenodd" d="M5.91665 7.49999C5.91665 3.58797 9.08796 0.416656 13 0.416656C16.912 0.416656 20.0833 3.58797 20.0833 7.49999C20.0833 11.412 16.912 14.5833 13 14.5833C9.08796 14.5833 5.91665 11.412 5.91665 7.49999ZM13 2.91666C10.4687 2.91666 8.41665 4.96868 8.41665 7.49999C8.41665 10.0313 10.4687 12.0833 13 12.0833C15.5313 12.0833 17.5833 10.0313 17.5833 7.49999C17.5833 4.96868 15.5313 2.91666 13 2.91666Z" fill="#2546F3"/>
<path fill-rule="evenodd" clip-rule="evenodd" d="M6.33331 19.5833C4.26225 19.5833 2.58331 21.2623 2.58331 23.3333V25.3138C2.58331 25.3439 2.60517 25.3697 2.63493 25.3745C9.49952 26.4953 16.5004 26.4953 23.365 25.3745C23.3948 25.3697 23.4166 25.344 23.4166 25.3138V23.3333C23.4166 21.2623 21.7377 19.5833 19.6666 19.5833H19.0985C19.0546 19.5833 19.011 19.5903 18.9692 19.6039L17.5267 20.0749C14.5853 21.0354 11.4147 21.0354 8.47329 20.0749L7.03076 19.6039C6.98901 19.5903 6.94535 19.5833 6.90143 19.5833H6.33331ZM0.083313 23.3333C0.083313 19.8815 2.88153 17.0833 6.33331 17.0833H6.90143C7.20892 17.0833 7.51447 17.1319 7.80677 17.2274L9.24929 17.6984C11.6864 18.4942 14.3135 18.4942 16.7507 17.6984L18.1932 17.2274C18.4855 17.1319 18.791 17.0833 19.0985 17.0833H19.6666C23.1184 17.0833 25.9166 19.8815 25.9166 23.3333V25.3138C25.9166 26.5692 25.0068 27.6396 23.7679 27.8419C16.6365 29.0062 9.36348 29.0062 2.2321 27.8419C0.993119 27.6396 0.083313 26.5692 0.083313 25.3138V23.3333Z" fill="#2546F3"/>
</svg>