<svg width="26" height="28" viewBox="0 0 28 27" fill="none" xmlns="http://www.w3.org/2000/svg">
<path fill-rule="evenodd" clip-rule="evenodd" d="M1.2337 4.35506C1.48243 2.22839 3.28428 0.625 5.42544 0.625H21.5394C21.8126 0.625 22.0764 0.72439 22.2817 0.904622L26.4224 4.5403C27.3533 5.35766 27.8676 6.55013 27.8231 7.78815L27.3071 22.1481C27.2274 24.3672 25.4053 26.125 23.1848 26.125H5.16939C3.17496 26.125 1.49117 24.643 1.2379 22.6647C0.493153 16.8474 0.461071 10.961 1.14237 5.13592L1.2337 4.35506ZM5.42544 2.875C4.42581 2.875 3.58459 3.62357 3.46846 4.61643L3.37713 5.39729C2.7171 11.0406 2.74818 16.7433 3.46969 22.379C3.57918 23.2343 4.30714 23.875 5.16939 23.875H6.12503V17.5C6.12503 16.0503 7.30028 14.875 8.75003 14.875H19.25C20.6998 14.875 21.875 16.0503 21.875 17.5V23.875H23.1848C24.1941 23.875 25.0223 23.076 25.0586 22.0673L25.5746 7.70735C25.5948 7.14461 25.361 6.60258 24.9379 6.23105L21.125 2.88325V6.39996C21.125 7.84971 19.9498 9.02496 18.5 9.02496H9.50003C8.05028 9.02496 6.87503 7.84971 6.87503 6.39996V2.875H5.42544ZM9.12503 2.875V6.39996C9.12503 6.60707 9.29292 6.77496 9.50003 6.77496H18.5C18.7071 6.77496 18.875 6.60707 18.875 6.39996V2.875H9.12503ZM19.625 23.875H8.37503V17.5C8.37503 17.2929 8.54292 17.125 8.75003 17.125H19.25C19.4571 17.125 19.625 17.2929 19.625 17.5V23.875Z" fill="white"/>
</svg>
