<svg width="197" height="50" viewBox="0 0 197 50" fill="none" xmlns="http://www.w3.org/2000/svg">
<path d="M1 9C1 4.58172 4.58172 1 9 1H188C192.418 1 196 4.58172 196 9V41C196 45.4183 192.418 49 188 49H9C4.58172 49 1 45.4183 1 41V9Z" fill="white"/>
<path d="M33.6953 33.2812C28.9492 33.2812 25.9492 29.9297 25.9492 24.5391C25.9492 19.1836 28.9727 15.8086 33.6953 15.8086C37.5273 15.8086 40.4219 18.1641 40.8672 21.6914H38.2656C37.7969 19.5234 35.9922 18.1055 33.6953 18.1055C30.625 18.1055 28.6328 20.625 28.6328 24.5391C28.6328 28.4883 30.6016 30.9844 33.707 30.9844C36.0625 30.9844 37.7383 29.7773 38.2656 27.7383H40.8789C40.2344 31.2305 37.5859 33.2812 33.6953 33.2812Z" fill="#00CC60"/>
<path d="M48.2383 33.2344C44.7109 33.2344 42.3906 30.8086 42.3906 26.8359C42.3906 22.875 44.7227 20.4492 48.2383 20.4492C51.7539 20.4492 54.0859 22.875 54.0859 26.8359C54.0859 30.8086 51.7656 33.2344 48.2383 33.2344ZM48.2383 31.1484C50.2305 31.1484 51.5078 29.5781 51.5078 26.8359C51.5078 24.1055 50.2188 22.5352 48.2383 22.5352C46.2578 22.5352 44.9688 24.1055 44.9688 26.8359C44.9688 29.5781 46.2578 31.1484 48.2383 31.1484Z" fill="#00CC60"/>
<path d="M56.043 33V20.6719H58.457V22.7344H58.5156C59.1836 21.3281 60.4961 20.4609 62.3945 20.4609C65.1133 20.4609 66.6719 22.1953 66.6719 25.0195V33H64.1289V25.5117C64.1289 23.6602 63.2617 22.6406 61.5039 22.6406C59.7227 22.6406 58.5742 23.9062 58.5742 25.8164V33H56.043Z" fill="#00CC60"/>
<path d="M69.8594 17.7539H72.4023V20.6719H74.7461V22.6758H72.4023V29.4727C72.4023 30.5391 72.8711 31.0195 73.9023 31.0195C74.1602 31.0195 74.5703 30.9961 74.7344 30.9609V32.9648C74.4531 33.0352 73.8906 33.082 73.3281 33.082C70.832 33.082 69.8594 32.1328 69.8594 29.7539V22.6758H68.0664V20.6719H69.8594V17.7539Z" fill="#00CC60"/>
<path d="M76.9141 33V20.6719H79.4453V33H76.9141ZM78.1797 18.8672C77.3711 18.8672 76.7148 18.2227 76.7148 17.4258C76.7148 16.6172 77.3711 15.9727 78.1797 15.9727C79 15.9727 79.6562 16.6172 79.6562 17.4258C79.6562 18.2227 79 18.8672 78.1797 18.8672Z" fill="#00CC60"/>
<path d="M82.0352 33V20.6719H84.4492V22.7344H84.5078C85.1758 21.3281 86.4883 20.4609 88.3867 20.4609C91.1055 20.4609 92.6641 22.1953 92.6641 25.0195V33H90.1211V25.5117C90.1211 23.6602 89.2539 22.6406 87.4961 22.6406C85.7148 22.6406 84.5664 23.9062 84.5664 25.8164V33H82.0352Z" fill="#00CC60"/>
<path d="M105.684 20.6719V33H103.258V30.9141H103.199C102.52 32.3906 101.266 33.2227 99.3789 33.2227C96.6953 33.2227 95.0547 31.4766 95.0547 28.6523V20.6719H97.5859V28.1602C97.5859 30.0352 98.4766 31.043 100.223 31.043C102.051 31.043 103.152 29.7773 103.152 27.8555V20.6719H105.684Z" fill="#00CC60"/>
<path d="M113.348 22.4883C111.578 22.4883 110.336 23.8359 110.207 25.6992H116.371C116.312 23.8125 115.117 22.4883 113.348 22.4883ZM116.359 29.3789H118.762C118.41 31.6289 116.277 33.2344 113.453 33.2344C109.832 33.2344 107.641 30.7852 107.641 26.8945C107.641 23.0273 109.867 20.4492 113.348 20.4492C116.77 20.4492 118.902 22.8633 118.902 26.6016V27.4688H110.195V27.6211C110.195 29.7656 111.484 31.1836 113.512 31.1836C114.953 31.1836 116.02 30.457 116.359 29.3789Z" fill="#00CC60"/>
<path d="M120.871 33V20.6719H123.285V22.7695H123.344C123.754 21.3281 124.855 20.4727 126.309 20.4727C126.672 20.4727 126.988 20.5312 127.176 20.5664V22.9219C126.977 22.8398 126.531 22.7812 126.039 22.7812C124.41 22.7812 123.402 23.8711 123.402 25.6172V33H120.871Z" fill="#00CC60"/>
<path d="M161.96 20.3738C161.569 19.9832 161.569 19.3501 161.96 18.9596C162.35 18.569 162.983 18.569 163.374 18.9596L168.707 24.2929C169.098 24.6834 169.098 25.3166 168.707 25.7071L163.374 31.0404C162.983 31.431 162.35 31.431 161.96 31.0404C161.569 30.6499 161.569 30.0168 161.96 29.6262L165.586 26H152.667C152.114 26 151.667 25.5523 151.667 25C151.667 24.4477 152.114 24 152.667 24H165.586L161.96 20.3738Z" fill="#00CC60"/>
<path d="M1 9C1 4.58172 4.58172 1 9 1H188C192.418 1 196 4.58172 196 9V41C196 45.4183 192.418 49 188 49H9C4.58172 49 1 45.4183 1 41V9Z" stroke="#00CC60" stroke-linecap="round"/>
<path d="M33.6953 33.2812C28.9492 33.2812 25.9492 29.9297 25.9492 24.5391C25.9492 19.1836 28.9727 15.8086 33.6953 15.8086C37.5273 15.8086 40.4219 18.1641 40.8672 21.6914H38.2656C37.7969 19.5234 35.9922 18.1055 33.6953 18.1055C30.625 18.1055 28.6328 20.625 28.6328 24.5391C28.6328 28.4883 30.6016 30.9844 33.707 30.9844C36.0625 30.9844 37.7383 29.7773 38.2656 27.7383H40.8789C40.2344 31.2305 37.5859 33.2812 33.6953 33.2812Z" stroke="#00CC60" stroke-linecap="round"/>
<path d="M48.2383 33.2344C44.7109 33.2344 42.3906 30.8086 42.3906 26.8359C42.3906 22.875 44.7227 20.4492 48.2383 20.4492C51.7539 20.4492 54.0859 22.875 54.0859 26.8359C54.0859 30.8086 51.7656 33.2344 48.2383 33.2344ZM48.2383 31.1484C50.2305 31.1484 51.5078 29.5781 51.5078 26.8359C51.5078 24.1055 50.2188 22.5352 48.2383 22.5352C46.2578 22.5352 44.9688 24.1055 44.9688 26.8359C44.9688 29.5781 46.2578 31.1484 48.2383 31.1484Z" stroke="#00CC60" stroke-linecap="round"/>
<path d="M56.043 33V20.6719H58.457V22.7344H58.5156C59.1836 21.3281 60.4961 20.4609 62.3945 20.4609C65.1133 20.4609 66.6719 22.1953 66.6719 25.0195V33H64.1289V25.5117C64.1289 23.6602 63.2617 22.6406 61.5039 22.6406C59.7227 22.6406 58.5742 23.9062 58.5742 25.8164V33H56.043Z" stroke="#00CC60" stroke-linecap="round"/>
<path d="M69.8594 17.7539H72.4023V20.6719H74.7461V22.6758H72.4023V29.4727C72.4023 30.5391 72.8711 31.0195 73.9023 31.0195C74.1602 31.0195 74.5703 30.9961 74.7344 30.9609V32.9648C74.4531 33.0352 73.8906 33.082 73.3281 33.082C70.832 33.082 69.8594 32.1328 69.8594 29.7539V22.6758H68.0664V20.6719H69.8594V17.7539Z" stroke="#00CC60" stroke-linecap="round"/>
<path d="M76.9141 33V20.6719H79.4453V33H76.9141ZM78.1797 18.8672C77.3711 18.8672 76.7148 18.2227 76.7148 17.4258C76.7148 16.6172 77.3711 15.9727 78.1797 15.9727C79 15.9727 79.6562 16.6172 79.6562 17.4258C79.6562 18.2227 79 18.8672 78.1797 18.8672Z" stroke="#00CC60" stroke-linecap="round"/>
<path d="M82.0352 33V20.6719H84.4492V22.7344H84.5078C85.1758 21.3281 86.4883 20.4609 88.3867 20.4609C91.1055 20.4609 92.6641 22.1953 92.6641 25.0195V33H90.1211V25.5117C90.1211 23.6602 89.2539 22.6406 87.4961 22.6406C85.7148 22.6406 84.5664 23.9062 84.5664 25.8164V33H82.0352Z" stroke="#00CC60" stroke-linecap="round"/>
<path d="M105.684 20.6719V33H103.258V30.9141H103.199C102.52 32.3906 101.266 33.2227 99.3789 33.2227C96.6953 33.2227 95.0547 31.4766 95.0547 28.6523V20.6719H97.5859V28.1602C97.5859 30.0352 98.4766 31.043 100.223 31.043C102.051 31.043 103.152 29.7773 103.152 27.8555V20.6719H105.684Z" stroke="#00CC60" stroke-linecap="round"/>
<path d="M113.348 22.4883C111.578 22.4883 110.336 23.8359 110.207 25.6992H116.371C116.312 23.8125 115.117 22.4883 113.348 22.4883ZM116.359 29.3789H118.762C118.41 31.6289 116.277 33.2344 113.453 33.2344C109.832 33.2344 107.641 30.7852 107.641 26.8945C107.641 23.0273 109.867 20.4492 113.348 20.4492C116.77 20.4492 118.902 22.8633 118.902 26.6016V27.4688H110.195V27.6211C110.195 29.7656 111.484 31.1836 113.512 31.1836C114.953 31.1836 116.02 30.457 116.359 29.3789Z" stroke="#00CC60" stroke-linecap="round"/>
<path d="M120.871 33V20.6719H123.285V22.7695H123.344C123.754 21.3281 124.855 20.4727 126.309 20.4727C126.672 20.4727 126.988 20.5312 127.176 20.5664V22.9219C126.977 22.8398 126.531 22.7812 126.039 22.7812C124.41 22.7812 123.402 23.8711 123.402 25.6172V33H120.871Z" stroke="#00CC60" stroke-linecap="round"/>
<path d="M161.96 20.3738C161.569 19.9832 161.569 19.3501 161.96 18.9596C162.35 18.569 162.983 18.569 163.374 18.9596L168.707 24.2929C169.098 24.6834 169.098 25.3166 168.707 25.7071L163.374 31.0404C162.983 31.431 162.35 31.431 161.96 31.0404C161.569 30.6499 161.569 30.0168 161.96 29.6262L165.586 26H152.667C152.114 26 151.667 25.5523 151.667 25C151.667 24.4477 152.114 24 152.667 24H165.586L161.96 20.3738Z" stroke="#00CC60" stroke-linecap="round"/>
</svg>
