<svg width="24" height="24" viewBox="0 0 36 36" fill="none" xmlns="http://www.w3.org/2000/svg">
    <path d="M15 3.375C14.3787 3.375 13.875 3.87868 13.875 4.5V5.625H7.5C6.87868 5.625 6.375 6.12868 6.375 6.75C6.375 7.37132 6.87868 7.875 7.5 7.875H28.5C29.1213 7.875 29.625 7.37132 29.625 6.75C29.625 6.12868 29.1213 5.625 28.5 5.625H22.125V4.5C22.125 3.87868 21.6213 3.375 21 3.375H15Z" fill="#DD2025"/>
    <path d="M19.591 22.5L21.7955 24.7045C22.2348 25.1438 22.2348 25.8561 21.7955 26.2955C21.3562 26.7348 20.6438 26.7348 20.2045 26.2955L18 24.091L15.7955 26.2955C15.3562 26.7348 14.6439 26.7348 14.2045 26.2955C13.7652 25.8562 13.7652 25.1438 14.2045 24.7045L16.409 22.5L14.2045 20.2955C13.7652 19.8561 13.7652 19.1438 14.2045 18.7045C14.6438 18.2652 15.3562 18.2652 15.7955 18.7045L18 20.909L20.2045 18.7045C20.6439 18.2652 21.3562 18.2652 21.7955 18.7045C22.2348 19.1438 22.2348 19.8562 21.7955 20.2955L19.591 22.5Z" fill="#DD2025"/>
    <path fill-rule="evenodd" clip-rule="evenodd" d="M8.98714 11.8758C9.05044 11.306 9.53201 10.875 10.1053 10.875H25.8947C26.468 10.875 26.9495 11.306 27.0128 11.8758L27.3131 14.5778C27.8573 19.4758 27.8573 24.419 27.3131 29.317L27.2835 29.583C27.0675 31.5272 25.5607 33.0775 23.6234 33.3487C19.8926 33.871 16.1073 33.871 12.3766 33.3487C10.4393 33.0775 8.93249 31.5272 8.71647 29.583L8.68691 29.317C8.14269 24.419 8.14269 19.4758 8.68691 14.5778L8.98714 11.8758ZM11.1122 13.125L10.9232 14.8263C10.3973 19.5591 10.3973 24.3356 10.9232 29.0685L10.9527 29.3345C11.0552 30.2566 11.7698 30.9918 12.6886 31.1204C16.2123 31.6138 19.7876 31.6138 23.3114 31.1204C24.2302 30.9918 24.9448 30.2566 25.0473 29.3345L25.0768 29.0685C25.6027 24.3356 25.6027 19.5591 25.0768 14.8263L24.8878 13.125H11.1122Z" fill="#DD2025"/>
</svg>
