<svg xmlns="http://www.w3.org/2000/svg" width="26" height="28" viewBox="0 0 26 28" fill="none">
<path fill-rule="evenodd" clip-rule="evenodd" d="M18.7054 1.2045C18.4944 0.993527 18.2083 0.875 17.9099 0.875C17.6115 0.875 17.3254 0.993527 17.1144 1.2045L3.32582 14.9931C3.18448 15.1344 3.08335 15.3109 3.03283 15.5043L1.53283 21.2469C1.4319 21.6333 1.54341 22.0443 1.82582 22.3267C2.10823 22.6091 2.5192 22.7206 2.90563 22.6197L8.64827 21.1197C8.84167 21.0692 9.01811 20.9681 9.15945 20.8267L22.948 7.03814C23.3874 6.5988 23.3874 5.88649 22.948 5.44715L18.7054 1.2045ZM5.13265 16.3682L17.9099 3.59099L20.5615 6.24264L7.7843 19.0199L4.19515 19.9574L5.13265 16.3682Z" fill="white"/>
<path d="M2 24.875C1.37868 24.875 0.875 25.3787 0.875 26C0.875 26.6213 1.37868 27.125 2 27.125H24.5C25.1213 27.125 25.625 26.6213 25.625 26C25.625 25.3787 25.1213 24.875 24.5 24.875H2Z" fill="white"/>
</svg>