<svg xmlns="http://www.w3.org/2000/svg" width="20" height="24" viewBox="0 0 26 28" fill="none">
  <path fill-rule="evenodd" clip-rule="evenodd" d="M18.2054 1.2045C17.9944 0.993527 17.7083 0.875 17.4099 0.875C17.1115 0.875 16.8254 0.993527 16.6144 1.2045L2.82582 14.9931C2.68448 15.1344 2.58335 15.3109 2.53283 15.5043L1.03283 21.2469C0.931899 21.6333 1.04341 22.0443 1.32582 22.3267C1.60823 22.6091 2.0192 22.7206 2.40563 22.6197L8.14827 21.1197C8.34167 21.0692 8.51811 20.9681 8.65945 20.8267L22.448 7.03814C22.8874 6.5988 22.8874 5.88649 22.448 5.44715L18.2054 1.2045ZM4.63265 16.3682L17.4099 3.59099L20.0615 6.24264L7.2843 19.0199L3.69515 19.9574L4.63265 16.3682Z" fill="white"/>
  <path d="M1.5 24.875C0.87868 24.875 0.375 25.3787 0.375 26C0.375 26.6213 0.87868 27.125 1.5 27.125H24C24.6213 27.125 25.125 26.6213 25.125 26C25.125 25.3787 24.6213 24.875 24 24.875H1.5Z" fill="white"/>
</svg>