<svg xmlns="http://www.w3.org/2000/svg" width="12" height="12" viewBox="0 0 12 12" fill="none">
<path fill-rule="evenodd" clip-rule="evenodd" d="M7.59002 8.29712C5.82317 9.71222 3.23688 9.60084 1.59903 7.96299C-0.158334 6.20563 -0.158334 3.35638 1.59903 1.59903C3.35638 -0.158334 6.20563 -0.158334 7.96299 1.59903C9.60084 3.23688 9.71222 5.82316 8.29712 7.59001L11.7342 11.0271C11.9295 11.2224 11.9295 11.5389 11.7342 11.7342C11.5389 11.9295 11.2224 11.9295 11.0271 11.7342L7.59002 8.29712ZM2.30613 7.25588C0.939297 5.88905 0.939297 3.67297 2.30613 2.30613C3.67297 0.939297 5.88904 0.939297 7.25588 2.30613C8.62171 3.67196 8.62271 5.88579 7.25889 7.25287C7.25788 7.25386 7.25687 7.25486 7.25587 7.25586C7.25487 7.25687 7.25387 7.25787 7.25287 7.25888C5.8858 8.62271 3.67197 8.62171 2.30613 7.25588Z" fill="#0923A9"/>
</svg>