<svg xmlns="http://www.w3.org/2000/svg" width="20" height="20" viewBox="0 0 34 34" fill="none">
<path fill-rule="evenodd" clip-rule="evenodd" d="M21.5714 23.6043C16.4917 27.6727 9.05613 27.3525 4.34729 22.6437C-0.705119 17.5913 -0.705119 9.39972 4.34729 4.34731C9.3997 -0.705094 17.5913 -0.705093 22.6437 4.34731C27.3525 9.05615 27.6727 16.4917 23.6043 21.5714L33.486 31.453C34.0473 32.0144 34.0473 32.9246 33.486 33.486C32.9246 34.0473 32.0144 34.0473 31.453 33.486L21.5714 23.6043ZM6.38022 20.6108C2.45057 16.6811 2.45057 10.3099 6.38022 6.38025C10.3099 2.4506 16.6811 2.4506 20.6107 6.38025C24.5375 10.307 24.5404 16.6718 20.6194 20.6021C20.6165 20.605 20.6136 20.6078 20.6107 20.6107C20.6078 20.6136 20.605 20.6165 20.6021 20.6194C16.6718 24.5404 10.307 24.5375 6.38022 20.6108Z" fill="white"/>
</svg>