<svg width="40" height="40" viewBox="0 0 40 40" fill="none" xmlns="http://www.w3.org/2000/svg">
<path d="M23.3334 3.33325H10.0001C9.11603 3.33325 8.26818 3.68444 7.64306 4.30956C7.01794 4.93468 6.66675 5.78253 6.66675 6.66659V33.3333C6.66675 34.2173 7.01794 35.0652 7.64306 35.6903C8.26818 36.3154 9.11603 36.6666 10.0001 36.6666H30.0001C30.8841 36.6666 31.732 36.3154 32.3571 35.6903C32.9822 35.0652 33.3334 34.2173 33.3334 33.3333V13.3333L23.3334 3.33325ZM16.6634 24.6133H14.8251V30.0699H13.2967V24.6133H11.4884V23.3333H16.6634V24.6133ZM21.2051 30.0699L20.5967 28.8516C20.3467 28.3816 20.1867 28.0316 19.9984 27.6416H19.9767C19.8384 28.0299 19.6684 28.3799 19.4567 28.8516L18.8984 30.0699H17.1567L19.1084 26.6616L17.2267 23.3333H18.9767L19.5667 24.5633C19.7684 24.9716 19.9167 25.3016 20.0767 25.6816H20.0984C20.2584 25.2516 20.3884 24.9516 20.5584 24.5633L21.1267 23.3333H22.8651L20.9667 26.6216L22.9634 30.0699H21.2051ZM28.5117 24.6133H26.6717V30.0699H25.1434V24.6133H23.3351V23.3333H28.5101L28.5117 24.6133ZM23.3334 14.9999H21.6667V6.66659L30.0001 14.9999H23.3334Z" fill="white"/>
</svg>
